<?xml version="1.0" encoding="UTF-8"?><svg id="Layer_1" xmlns="http://www.w3.org/2000/svg" viewBox="0 0 1953.66 354.88"><defs><style>.cls-1{fill:#298437;}.cls-1,.cls-2{fill-rule:evenodd;}.cls-1,.cls-2,.cls-3,.cls-4{stroke-width:0px;}.cls-2,.cls-3{fill:#f05223;}.cls-4{fill:#231f20;}</style></defs><path class="cls-2" d="m155.62,222.79c0,72.21-29.6,119.77-100.4,119.77l-.25,1.44,30.25,4.38h9.23c73.93,0,91.18-50.97,91.18-125.6V51.86h33.46c31.43,0,64.63,19.08,64.63,48.84v8.13c0,19.63-16.55,39.44-28.38,48.16-8.87,6.55-13.51,9.57-23.55,14.64-6.69,3.39-23.36,7.69-27.7,10.46,36.22,0,60.17-8.45,80.98-24.22,17.01-12.89,37.89-39.56,37.89-68.8v-12.79c0-40.19-37.57-72.1-78.48-72.1h-88.87v218.61Z"/><path class="cls-2" d="m33.3,60c15.97-3.74,21.36-2.64,39.16-4.73,6.86-.82,12.37-1.1,20.85-1.1,6.51,0,18.47-2.66,18.47,2.34v138.36c0,32.14-1.36,62.76-9.37,87.08-3.68,11.16-9.8,23.61-17.45,31.26-11.81,11.81-16.44,11.55-28.57,20.04,56.64,0,88.87-39.69,88.87-97.67V4.19H52.92c-5.65,0-9.03,20.92-10.82,26.3-2.57,7.74-8.16,21.77-8.8,29.51Z"/><path class="cls-1" d="m5.6,326.27l-.27,9.34,1.41,15.08h2.32c4.05-17.53,33.03-27.74,47.3-36.05,8.01-4.68,17.49-12.05,19.39-22.32,3.21-17.38-2.93-22.61-3.22-35.81-6.61,7.66-4.19,10.32-14.79,18.81-6.42,5.16-15.19,7.79-22.37,12.35-13.25,8.42-29.77,17.01-29.77,38.6Z"/><rect class="cls-4" x="361.59" y="3.07" width="4.85" height="348.74"/><path class="cls-3" d="m501.38,51.96c-10.34,0-15.37,2.66-15.37,7.98v64.43c0,7.39-1.48,13.89-3.84,19.51-2.36,5.62-5.91,10.34-10.34,14.19-4.43,3.84-9.75,6.8-15.96,8.57-6.21,2.07-13,2.96-20.69,2.96-6.5,0-12.41-.89-17.73-2.36-5.32-1.77-9.75-3.84-13.59-7.09-4.14-2.96-7.09-6.8-9.16-11.23-2.07-4.43-3.25-9.46-3.25-15.07,0-5.91,1.77-10.34,5.02-13.89,3.25-3.55,7.68-5.32,13.3-5.32,5.02,0,8.87,1.48,11.53,3.84,2.66,2.66,4.14,6.21,4.14,10.34,0,3.84-1.18,7.09-3.55,9.75-2.36,2.66-5.62,4.14-9.75,4.43.89,3.25,2.96,5.62,6.5,7.39,3.25,1.77,7.09,2.66,11.23,2.66,3.25,0,6.5-.59,8.87-1.48,2.66-1.18,5.02-2.96,6.5-5.91,1.77-2.66,2.96-5.91,3.84-10.34.89-4.43,1.48-9.75,1.48-16.55v-58.81c0-5.32-5.32-7.98-15.66-7.98v-14.19h66.49v14.19Z"/><path class="cls-3" d="m525.9,118.16h37.24l-18.03-56.74-19.21,56.74Zm84.52,29.26c1.18,3.55,5.91,5.02,13.89,5.02v14.48h-69.45v-14.48h13.3c3.25,0,5.02-.89,5.02-2.96,0-.59-.3-1.18-.59-2.07l-4.73-13.89h-46.99l-4.43,12.41c-.3.89-.59,1.77-.59,2.36,0,2.96,2.66,4.14,7.98,4.14h9.75v14.48h-49.06l-.3-14.48c5.02,0,8.57-.3,10.93-1.18,2.36-.89,3.55-2.07,4.14-3.84l39.01-109.64h35.17l36.94,109.64Z"/><path class="cls-3" d="m740.16,80.04l-17.73,1.48c-1.77-8.87-5.32-15.96-10.64-20.98-5.32-5.02-12.41-7.68-21.28-7.68-13,0-22.16,4.43-27.78,13-5.62,8.57-8.27,20.69-8.27,36.05,0,10.05.59,18.03,2.36,24.23,1.48,6.21,3.84,10.93,7.09,14.48,2.96,3.55,6.8,5.91,10.93,7.09,4.43,1.18,9.16,1.77,14.19,1.77,3.84,0,7.68-.3,10.93-1.18,3.55-.89,6.5-2.07,9.16-3.55,2.66-1.77,4.73-3.55,6.21-5.91,1.77-2.07,2.36-4.73,2.36-7.68v-8.27c0-5.32-5.02-7.98-15.66-7.98v-14.19h57.33v14.19c-10.34,0-15.66,2.66-15.66,7.98v44.03h-21.57l-3.55-10.93c-1.48,1.77-3.25,3.25-5.32,5.02-2.36,1.48-5.02,2.96-8.27,4.14-3.55,1.48-7.39,2.36-11.53,3.25-4.43.89-9.16,1.18-14.48,1.18-7.68,0-15.37-1.18-22.46-3.55-7.39-2.07-13.89-5.91-19.51-11.23-5.91-5.32-10.34-12.41-13.89-20.98-3.55-8.57-5.32-19.21-5.32-31.62s1.77-22.16,5.02-30.74c3.55-8.27,8.27-15.37,13.89-20.69,5.91-5.62,12.71-9.46,20.39-12.12,7.39-2.66,15.37-3.84,23.94-3.84s16.55,1.18,23.05,3.25c6.21,2.07,11.53,5.02,15.07,8.57l3.84-8.87h17.14v42.26Z"/><path class="cls-3" d="m801.93,118.16h37.24l-18.03-56.74-19.21,56.74Zm84.52,29.26c.89,3.55,5.62,5.02,13.89,5.02v14.48h-69.75v-14.48h13.59c3.25,0,5.02-.89,5.02-2.96,0-.59-.3-1.18-.59-2.07l-5.02-13.89h-46.69l-4.43,12.41c-.3.89-.59,1.77-.59,2.36,0,2.96,2.66,4.14,7.98,4.14h9.75v14.48h-49.06l-.3-14.48c5.02,0,8.57-.3,10.93-1.18,2.07-.89,3.55-2.07,4.14-3.84l39.01-109.64h35.17l36.94,109.64Z"/><path class="cls-3" d="m1011.76,90.97l-15.07.3c-.59-13-2.66-22.16-6.21-27.78-3.55-5.32-8.57-7.98-15.37-7.98h-11.82v88.95c0,5.32,5.32,7.98,15.66,7.98v14.48h-66.49v-14.48c10.34,0,15.37-2.66,15.37-7.98V55.51h-11.82c-6.8,0-11.82,2.66-15.37,7.98-3.55,5.62-5.62,14.78-6.21,27.78l-15.37-.3v-53.2h132.69v53.2Z"/><path class="cls-3" d="m1114.31,56.1v42.56h15.37c8.27,0,14.19-1.77,17.73-5.32,3.25-3.55,5.02-9.75,5.02-18.03,0-5.91-1.77-10.64-5.02-13.89-3.55-3.55-9.46-5.32-17.73-5.32h-15.37Zm23.35-18.32c7.68,0,14.48.3,20.39,1.48,5.91.89,10.93,2.96,15.07,5.91,4.14,2.66,7.39,6.5,9.46,11.53,2.07,4.73,3.25,10.93,3.25,18.62s-1.18,14.19-3.25,19.51c-2.07,5.32-5.32,9.75-9.46,13-4.14,3.25-9.16,5.62-15.07,7.09-5.91,1.48-12.71,2.07-20.39,2.07h-23.35v27.48c0,5.32,6.5,7.98,19.51,7.98v14.48h-70.04v-14.48c10.34,0,15.37-2.66,15.37-7.98V59.94c0-5.32-5.02-7.98-15.37-7.98v-14.19h73.88Z"/><path class="cls-3" d="m1335.36,51.96c-10.34,0-15.66,2.66-15.66,7.98v84.52c0,5.32,5.32,7.98,15.66,7.98v14.48h-64.43v-14.48c8.87,0,13.3-2.66,13.3-7.98v-37.24h-45.51v37.24c0,5.32,4.43,7.98,13.59,7.98v14.48h-64.43v-14.48c10.34,0,15.66-2.66,15.66-7.98V59.94c0-5.32-5.32-7.98-15.66-7.98v-14.19h64.43v14.19c-9.16,0-13.59,2.66-13.59,7.98v30.74h45.51v-30.74c0-5.32-4.43-7.98-13.3-7.98v-14.19h64.43v14.19Z"/><path class="cls-3" d="m1379.4,118.16h37.24l-18.03-56.74-19.21,56.74Zm84.23,29.26c1.18,3.55,5.91,5.02,14.19,5.02v14.48h-69.75v-14.48h13.59c3.25,0,5.02-.89,5.02-2.96,0-.59-.3-1.18-.59-2.07l-5.02-13.89h-46.99l-4.14,12.41c-.3.89-.59,1.77-.59,2.36,0,2.96,2.66,4.14,7.68,4.14h10.05v14.48h-49.06l-.3-14.48c5.02,0,8.57-.3,10.93-1.18,2.07-.89,3.55-2.07,4.14-3.84l39.01-109.64h35.17l36.65,109.64Z"/><path class="cls-3" d="m1531.01,56.1v35.76h22.16c6.5,0,11.23-1.48,14.19-4.43,2.96-2.96,4.43-7.68,4.43-15.07,0-5.32-1.18-9.16-4.14-12.12-2.96-2.66-7.68-4.14-14.48-4.14h-22.16Zm94.57,88.07c0,3.55-.59,6.5-1.77,9.46-.89,2.96-2.66,5.62-4.73,7.68-2.07,2.07-4.73,3.84-8.27,5.02-3.55,1.18-7.39,1.77-12.41,1.77-5.32,0-10.05-.89-13.89-2.07-4.14-1.48-7.09-3.25-9.75-5.91-2.36-2.36-4.14-5.32-5.32-8.57-1.18-2.96-1.77-6.5-1.77-10.34v-11.23c0-4.43-.3-8.27-.59-11.23-.59-2.96-1.48-5.62-2.66-7.39-1.48-1.77-2.96-2.96-5.32-3.84-2.07-.89-4.73-1.18-7.98-1.18h-20.1v38.12c0,5.32,6.5,7.98,19.21,7.98v14.48h-70.04v-14.19c10.34,0,15.66-2.66,15.66-7.98V59.94c0-5.32-5.32-7.98-15.66-7.98v-14.19h82.75c5.62,0,11.23.3,16.55.89,5.62.89,10.34,2.36,14.48,4.73,4.43,2.36,7.68,5.62,10.34,9.75,2.66,4.43,3.84,9.75,3.84,16.85,0,4.43-.89,8.57-2.07,11.82-1.48,3.55-3.25,6.5-5.62,8.87-2.07,2.36-4.73,4.43-7.68,5.91s-5.91,2.66-9.16,3.25c3.25.89,5.91,2.36,8.27,3.84,2.36,1.48,4.43,3.55,6.21,5.91,1.77,2.36,2.96,5.62,3.84,9.16.89,3.55,1.18,7.68,1.18,12.41v13.89c0,2.66.59,4.43,1.77,5.62.89,1.18,2.36,1.77,3.84,1.77,1.77,0,3.25-.59,4.14-1.77,1.18-1.18,1.77-2.96,1.77-5.62v-8.27h10.93v7.39Z"/><path class="cls-3" d="m1802.3,51.96c-10.34,0-15.66,2.66-15.66,7.98v84.52c0,5.32,5.32,7.98,15.66,7.98v14.48h-64.72v-14.48c10.05,0,15.37-2.66,15.37-7.98V61.72l-32.51,105.21h-28.08l-32.51-105.21v82.75c0,5.32,5.32,7.98,15.66,7.98v14.48h-49.65v-14.48c10.34,0,15.66-2.66,15.66-7.98V59.94c0-5.32-5.32-7.98-15.66-7.98v-14.19h63.54l26.3,89.84,26.3-89.84h60.29v14.19Z"/><path class="cls-3" d="m1846.34,118.16h37.24l-18.03-56.74-19.21,56.74Zm84.52,29.26c1.18,3.55,5.91,5.02,13.89,5.02v14.48h-69.75v-14.48h13.59c3.25,0,5.02-.89,5.02-2.96,0-.59-.3-1.18-.59-2.07l-4.73-13.89h-46.99l-4.43,12.41c-.3.89-.59,1.77-.59,2.36,0,2.96,2.66,4.14,7.98,4.14h9.75v14.48h-49.06l-.3-14.48c5.02,0,8.57-.3,10.93-1.18,2.36-.89,3.55-2.07,4.14-3.84l39.01-109.64h35.17l36.94,109.64Z"/><path class="cls-4" d="m599.68,227.32l-23.57,90.42h-26.66l-14.43-59.51-14.94,59.51h-26.66l-22.93-90.42h23.57l13.01,65.82,16.1-65.82h24.22l15.46,65.82,13.14-65.82h23.7Z"/><path class="cls-4" d="m611.59,315.36c-2.45-2.27-3.67-5.09-3.67-8.44s1.22-6.31,3.67-8.63c2.45-2.32,5.6-3.48,9.47-3.48s6.89,1.16,9.34,3.48c2.45,2.32,3.67,5.2,3.67,8.63s-1.22,6.16-3.67,8.44c-2.45,2.28-5.56,3.41-9.34,3.41s-7.02-1.14-9.47-3.41Z"/><path class="cls-4" d="m725.39,227.32v90.42h-22.03v-37.22h-34.26v37.22h-22.03v-90.42h22.03v35.42h34.26v-35.42h22.03Z"/><path class="cls-4" d="m742.07,315.36c-2.45-2.27-3.67-5.09-3.67-8.44s1.22-6.31,3.67-8.63c2.45-2.32,5.6-3.48,9.47-3.48s6.89,1.16,9.34,3.48c2.45,2.32,3.67,5.2,3.67,8.63s-1.22,6.16-3.67,8.44c-2.45,2.28-5.56,3.41-9.34,3.41s-7.02-1.14-9.47-3.41Z"/><path class="cls-4" d="m796.94,312.72c-7.08-3.95-12.71-9.47-16.87-16.55-4.17-7.08-6.25-15.05-6.25-23.89s2.08-16.79,6.25-23.83c4.16-7.04,9.79-12.54,16.87-16.49,7.08-3.95,14.88-5.93,23.38-5.93s16.29,1.98,23.38,5.93c7.08,3.95,12.67,9.45,16.74,16.49,4.08,7.04,6.12,14.99,6.12,23.83s-2.06,16.81-6.18,23.89c-4.12,7.08-9.7,12.6-16.74,16.55-7.04,3.95-14.81,5.92-23.31,5.92s-16.29-1.97-23.38-5.92Zm40.7-21.38c4.33-4.81,6.5-11.16,6.5-19.06s-2.17-14.36-6.5-19.13c-4.34-4.77-10.11-7.15-17.32-7.15s-13.12,2.36-17.45,7.08c-4.34,4.72-6.5,11.12-6.5,19.19s2.17,14.36,6.5,19.13c4.33,4.77,10.15,7.15,17.45,7.15s12.99-2.4,17.32-7.21Z"/><path class="cls-4" d="m966.13,255.92c-1.63-3-3.97-5.3-7.02-6.89-3.05-1.59-6.63-2.38-10.76-2.38-7.13,0-12.84,2.34-17.13,7.02-4.29,4.68-6.44,10.93-6.44,18.74,0,8.33,2.25,14.83,6.76,19.51,4.51,4.68,10.71,7.02,18.61,7.02,5.41,0,9.98-1.37,13.72-4.12,3.74-2.75,6.46-6.7,8.18-11.85h-27.95v-16.23h47.92v20.48c-1.63,5.5-4.4,10.61-8.31,15.33-3.91,4.72-8.87,8.55-14.88,11.46-6.01,2.92-12.8,4.38-20.35,4.38-8.93,0-16.9-1.95-23.89-5.86-7-3.91-12.45-9.34-16.36-16.29-3.91-6.96-5.86-14.9-5.86-23.83s1.95-16.89,5.86-23.89c3.91-7,9.34-12.45,16.29-16.36,6.96-3.91,14.9-5.86,23.83-5.86,10.82,0,19.94,2.62,27.37,7.86,7.43,5.24,12.34,12.49,14.75,21.77h-24.34Z"/><path class="cls-4" d="m1005.09,315.36c-2.45-2.27-3.67-5.09-3.67-8.44s1.22-6.31,3.67-8.63c2.45-2.32,5.6-3.48,9.47-3.48s6.89,1.16,9.34,3.48c2.45,2.32,3.67,5.2,3.67,8.63s-1.22,6.16-3.67,8.44c-2.45,2.28-5.56,3.41-9.34,3.41s-7.02-1.14-9.47-3.41Z"/><path class="cls-4" d="m1142.98,227.32v90.42h-22.03v-54.23l-20.22,54.23h-17.77l-20.35-54.36v54.36h-22.03v-90.42h26.02l25.37,62.6,25.12-62.6h25.89Z"/><path class="cls-4" d="m1159.66,315.36c-2.45-2.27-3.67-5.09-3.67-8.44s1.22-6.31,3.67-8.63c2.45-2.32,5.6-3.48,9.47-3.48s6.89,1.16,9.34,3.48c2.45,2.32,3.67,5.2,3.67,8.63s-1.22,6.16-3.67,8.44c-2.45,2.28-5.56,3.41-9.34,3.41s-7.02-1.14-9.47-3.41Z"/><path class="cls-4" d="m1260.45,270.79c-2.4,4.34-6.1,7.84-11.08,10.5-4.98,2.66-11.16,3.99-18.55,3.99h-13.65v32.46h-22.03v-90.42h35.68c7.21,0,13.31,1.25,18.29,3.74,4.98,2.49,8.71,5.93,11.21,10.3,2.49,4.38,3.74,9.4,3.74,15.07,0,5.24-1.2,10.03-3.61,14.36Zm-21.9-5.99c2.06-1.97,3.09-4.77,3.09-8.37s-1.03-6.4-3.09-8.37c-2.06-1.97-5.2-2.96-9.4-2.96h-11.98v22.67h11.98c4.21,0,7.34-.99,9.4-2.96Z"/><path class="cls-4" d="m1304.89,248.51c3.86-7,9.25-12.45,16.17-16.36,6.91-3.91,14.75-5.86,23.51-5.86,10.73,0,19.92,2.83,27.56,8.5,7.64,5.67,12.75,13.4,15.33,23.19h-24.22c-1.8-3.78-4.36-6.65-7.66-8.63-3.31-1.97-7.06-2.96-11.27-2.96-6.78,0-12.28,2.36-16.49,7.08-4.21,4.72-6.31,11.03-6.31,18.93s2.1,14.21,6.31,18.93c4.21,4.72,9.7,7.08,16.49,7.08,4.21,0,7.96-.99,11.27-2.96,3.3-1.97,5.86-4.85,7.66-8.63h24.22c-2.58,9.79-7.69,17.5-15.33,23.12-7.64,5.62-16.83,8.44-27.56,8.44-8.76,0-16.6-1.95-23.51-5.86-6.91-3.91-12.3-9.34-16.17-16.29-3.86-6.96-5.8-14.9-5.8-23.83s1.93-16.89,5.8-23.89Z"/><path class="cls-4" d="m1468.34,287.09h-49.85c.34,4.47,1.78,7.88,4.31,10.24,2.53,2.36,5.65,3.54,9.34,3.54,5.49,0,9.32-2.32,11.46-6.96h23.44c-1.2,4.72-3.37,8.97-6.5,12.75-3.14,3.78-7.06,6.74-11.79,8.89-4.72,2.15-10,3.22-15.84,3.22-7.04,0-13.31-1.5-18.81-4.51-5.5-3-9.79-7.3-12.88-12.88-3.09-5.58-4.64-12.11-4.64-19.58s1.52-14,4.57-19.58c3.05-5.58,7.32-9.87,12.82-12.88,5.49-3,11.81-4.51,18.93-4.51s13.14,1.46,18.55,4.38c5.41,2.92,9.64,7.08,12.69,12.49,3.05,5.41,4.57,11.72,4.57,18.93,0,2.06-.13,4.21-.39,6.44Zm-22.16-12.24c0-3.78-1.29-6.78-3.86-9.02-2.58-2.23-5.8-3.35-9.66-3.35s-6.81,1.08-9.34,3.22c-2.53,2.15-4.1,5.2-4.7,9.14h27.56Z"/><path class="cls-4" d="m1512,248.51c3.86-2.27,8.16-3.41,12.88-3.41v23.31h-6.05c-5.5,0-9.62,1.18-12.37,3.54-2.75,2.36-4.12,6.5-4.12,12.43v33.36h-22.03v-71.87h22.03v11.98c2.58-3.95,5.8-7.06,9.66-9.34Z"/><path class="cls-4" d="m1575.51,299.06v18.68h-11.21c-7.99,0-14.21-1.95-18.68-5.86-4.47-3.91-6.7-10.28-6.7-19.13v-28.59h-8.76v-18.29h8.76v-17.52h22.03v17.52h14.43v18.29h-14.43v28.85c0,2.15.52,3.69,1.55,4.64,1.03.95,2.75,1.42,5.15,1.42h7.86Z"/><path class="cls-4" d="m1589.35,234.98c-2.45-2.27-3.67-5.09-3.67-8.44s1.22-6.29,3.67-8.57c2.45-2.27,5.6-3.41,9.47-3.41s6.89,1.14,9.34,3.41c2.45,2.28,3.67,5.13,3.67,8.57s-1.22,6.16-3.67,8.44c-2.45,2.28-5.56,3.41-9.34,3.41s-7.02-1.14-9.47-3.41Zm20.42,10.88v71.87h-22.03v-71.87h22.03Z"/><path class="cls-4" d="m1661.81,264.16h-11.85v53.58h-22.03v-53.58h-7.99v-18.29h7.99v-2.06c0-8.84,2.53-15.56,7.6-20.16,5.07-4.59,12.49-6.89,22.28-6.89,1.63,0,2.83.04,3.61.13v18.68c-4.21-.26-7.17.34-8.89,1.8-1.72,1.46-2.58,4.08-2.58,7.86v.64h11.85v18.29Z"/><path class="cls-4" d="m1673.72,234.98c-2.45-2.27-3.67-5.09-3.67-8.44s1.22-6.29,3.67-8.57c2.45-2.27,5.6-3.41,9.47-3.41s6.89,1.14,9.34,3.41c2.45,2.28,3.67,5.13,3.67,8.57s-1.22,6.16-3.67,8.44c-2.45,2.28-5.56,3.41-9.34,3.41s-7.02-1.14-9.47-3.41Zm20.42,10.88v71.87h-22.03v-71.87h22.03Z"/><path class="cls-4" d="m1777.47,287.09h-49.85c.34,4.47,1.78,7.88,4.31,10.24,2.53,2.36,5.65,3.54,9.34,3.54,5.49,0,9.32-2.32,11.46-6.96h23.44c-1.2,4.72-3.37,8.97-6.5,12.75-3.14,3.78-7.06,6.74-11.79,8.89-4.72,2.15-10,3.22-15.84,3.22-7.04,0-13.31-1.5-18.81-4.51-5.5-3-9.79-7.3-12.88-12.88-3.09-5.58-4.64-12.11-4.64-19.58s1.52-14,4.57-19.58c3.05-5.58,7.32-9.87,12.82-12.88,5.49-3,11.81-4.51,18.93-4.51s13.14,1.46,18.55,4.38c5.41,2.92,9.64,7.08,12.69,12.49,3.05,5.41,4.57,11.72,4.57,18.93,0,2.06-.13,4.21-.39,6.44Zm-22.16-12.24c0-3.78-1.29-6.78-3.86-9.02-2.58-2.23-5.8-3.35-9.66-3.35s-6.81,1.08-9.34,3.22c-2.53,2.15-4.1,5.2-4.7,9.14h27.56Z"/><path class="cls-4" d="m1789.26,262.23c2.79-5.58,6.59-9.87,11.4-12.88,4.81-3,10.17-4.51,16.1-4.51,4.72,0,9.04.99,12.94,2.96,3.91,1.98,6.98,4.64,9.21,7.99v-33.36h22.03v95.32h-22.03v-10.3c-2.06,3.44-5,6.18-8.82,8.24-3.82,2.06-8.27,3.09-13.33,3.09-5.93,0-11.29-1.52-16.1-4.57-4.81-3.05-8.61-7.38-11.4-13.01-2.79-5.62-4.19-12.13-4.19-19.51s1.39-13.87,4.19-19.45Zm45.08,6.57c-3.05-3.18-6.76-4.77-11.14-4.77s-8.09,1.57-11.14,4.7c-3.05,3.14-4.57,7.45-4.57,12.95s1.52,9.85,4.57,13.07c3.05,3.22,6.76,4.83,11.14,4.83s8.09-1.59,11.14-4.77c3.05-3.18,4.57-7.51,4.57-13.01s-1.53-9.83-4.57-13.01Z"/></svg>