<svg xmlns="http://www.w3.org/2000/svg" width="214" height="84" viewBox="0 0 214 84" fill="none"><path d="M13.9258 38.1854C13.9258 56.4636 54.1463 71.283 103.761 71.283C152.938 71.283 192.88 56.7245 193.579 38.6691C193.21 28.481 181.079 19.3332 161.918 12.9621C146.245 8.05248 125.942 5.08789 103.758 5.08789C54.1463 5.08789 13.9258 19.9073 13.9258 38.1854Z" fill="white"></path><path fill-rule="evenodd" clip-rule="evenodd" d="M70.279 38.7108C70.3452 41.7833 71.644 43.7979 73.3815 45.3185C76.0766 47.6846 80.3142 47.9873 83.528 46.084C85.1994 45.0958 87.7587 42.3122 87.6786 38.676C87.6298 36.3378 86.7663 34.5006 85.6451 33.1366C83.7265 30.8053 80.7982 29.7927 77.9917 30.0954C76.8496 30.2207 75.7179 30.5547 74.7221 31.1323C72.8279 32.2284 71.4594 33.7733 70.6621 36.0907C70.394 36.8632 70.3139 37.7818 70.279 38.7108ZM69.3633 29.0933H70.2756L78.9875 29.0898H78.998H79.0084L87.7204 29.0933H88.6326V38.603V38.8187V48.3283H87.7204L79.0084 48.3318H78.998H78.9875L70.2756 48.3283H69.3633V38.8187V38.603V29.0933Z" fill="#8A8C8E"></path><path fill-rule="evenodd" clip-rule="evenodd" d="M76.7901 43.7476C76.7239 43.7511 76.6891 43.7754 76.6369 43.8311C76.6125 43.8868 76.5881 43.9355 76.5986 44.0259C76.6682 44.2034 76.8249 44.2521 76.9363 44.2417C77.0338 44.2034 77.0338 43.7998 76.7901 43.7476ZM76.4628 40.2715C76.5533 40.6125 76.6125 40.79 76.8005 41.1936C76.9677 41.7608 77.2079 42.2235 77.3019 42.8951C77.3019 43.8311 77.3228 44.3495 77.0408 44.6105L76.8667 44.5862C76.703 44.4922 76.3026 44.3217 76.2643 43.9877C76.2713 43.9007 76.2887 43.8276 76.334 43.7685C76.421 43.6084 76.5847 43.504 76.703 43.4449C76.7936 42.9368 76.7518 42.401 76.4976 41.7294C76.4071 41.3536 76.3061 40.9848 76.2295 40.6021L76.1041 39.9305C76.0798 39.7913 76.0449 39.5199 76.0728 39.499C76.1041 39.4747 76.1599 39.4782 76.1738 39.5025C76.2608 39.6347 76.3618 39.9931 76.4628 40.2715Z" fill="#8A8C8E"></path><path fill-rule="evenodd" clip-rule="evenodd" d="M82.2129 43.4114C82.1711 43.4149 82.1189 43.4149 82.0597 43.4741C82.0144 43.4984 81.9796 43.5924 81.99 43.6863C82.0597 43.8429 82.1711 43.8081 82.2442 43.8185C82.3347 43.7663 82.4079 43.4462 82.2129 43.4114ZM81.8229 39.9667C82.1432 40.3946 82.5889 41.4524 82.6516 42.4928C82.6586 42.4928 82.7282 43.1017 82.5541 43.6376C82.5193 43.742 82.568 43.909 82.5541 44.0377C82.5472 44.1004 82.4218 44.1178 82.3452 44.1073C82.2129 44.0934 81.8612 44.1004 81.7428 43.8325C81.7219 43.7837 81.708 43.6828 81.708 43.6132C81.7115 43.5436 81.7254 43.4775 81.7428 43.4219C81.8159 43.2166 81.9796 43.1922 82.0318 43.0287C82.0457 42.9834 82.0527 42.9312 82.0527 42.8686C82.0562 42.6459 81.9204 42.1866 81.7916 41.8178C81.6558 41.6194 81.1509 40.6765 81.0778 40.2033C81.0673 40.1511 81.022 40.0363 81.1404 39.9736C81.2902 39.904 81.4782 39.831 81.6105 39.8275C81.6871 39.8136 81.7741 39.8414 81.8229 39.9667Z" fill="#8A8C8E"></path><path fill-rule="evenodd" clip-rule="evenodd" d="M72.0264 38.0302C72.0577 37.8423 71.9916 37.71 71.9707 37.6892C71.7339 37.6787 71.3787 37.7901 71.1176 37.884C70.9679 37.978 71.0549 38.0441 71.1106 38.0858C71.2011 38.2111 71.6747 38.232 72.0264 38.0302ZM73.8718 38.4268L73.8057 38.2981C73.7883 38.0545 73.6246 37.9049 73.4679 37.884C72.3084 38.5034 71.8244 38.6426 71.0444 38.8409C70.9783 38.8966 70.9121 39.0079 71.0862 39.0914C72.0821 39.3872 73.4122 38.6321 73.8022 38.2946L73.8718 38.4268ZM74.9443 35.2883C74.812 34.9334 74.0738 34.6515 73.7151 35.3718C73.6211 35.5179 73.5863 35.6919 73.5793 35.8694C73.5933 35.9216 73.7012 35.8728 73.8335 35.8833C73.931 35.8902 73.9902 35.925 74.0599 35.932C74.6518 36.019 74.6518 35.6049 74.8155 35.4135C74.8886 35.33 74.9721 35.3231 74.9443 35.2883ZM77.9527 44.0115C77.7403 44.0811 77.6602 44.4291 77.8657 44.5439C78.2278 44.6378 78.6665 44.5509 78.7153 44.436C78.7362 44.3769 78.7501 44.3003 78.6979 44.2273C78.6317 44.1263 78.5865 44.1055 78.3183 44.1298C78.1756 44.0881 78.1477 44.0011 77.9527 44.0115ZM83.9104 43.5835C83.8512 43.5731 83.8025 43.5696 83.6911 43.5801C83.5587 43.5627 83.4752 43.5139 83.3011 43.5244C83.1966 43.5174 83.0852 43.667 83.1409 43.761C83.1792 44.0568 83.7955 44.0707 83.9766 43.9593C84.088 43.8028 84.0044 43.6288 83.9104 43.5835ZM78.5412 33.9591C78.4054 33.7921 78.3288 33.6007 77.7543 33.5937C77.4095 33.7016 77.0648 33.8303 76.7201 33.9173C75.9889 34.0078 76.5077 34.4253 76.8211 34.2479L77.796 33.9869C78.1059 33.973 78.1686 34.1574 78.1512 34.3175C78.0885 34.5158 77.8866 34.7524 77.8134 35.2013C77.7647 35.5806 77.6881 35.7754 77.4339 36.2208C77.0718 36.694 76.8246 36.955 76.654 36.8054C76.3719 36.5514 76.3266 36.2069 76.4868 35.6397C76.4485 35.5005 76.4938 35.3718 76.3058 35.2709C76.2605 35.2152 76.0725 35.2709 76.0725 35.3857C76.0829 35.5249 76.1142 35.6258 76.0864 35.8346C76.0759 35.9111 76.055 35.9981 76.0307 36.106L76.0272 36.2556C76.0481 36.4818 76.1665 36.7288 76.2396 36.9654V36.9689C76.5495 37.4978 76.8559 37.2681 76.9569 37.2299C77.3016 36.8993 77.6219 36.5618 77.9249 36.0712C78.0259 35.8624 78.1129 35.5945 78.1721 35.2744C78.2278 34.9508 78.3915 34.6585 78.5133 34.4184C78.5934 34.2409 78.5725 34.067 78.5412 33.9591ZM74.3454 33.2214C74.617 33.0614 74.9443 33.0927 75.1637 33.1309L75.4213 33.1901L75.8078 33.3084L76.0411 33.385L76.5356 33.3397C77.5767 33.0857 78.5865 32.8248 79.6694 32.6995C80.902 32.6334 82.0058 32.7795 82.8902 33.0266L82.8798 33.03C83.7677 33.3676 85.2789 33.719 86.1111 36.3426C86.2016 36.7149 86.3095 37.0872 86.3095 37.6787C86.3234 37.7622 86.3339 37.8423 86.3478 37.9223C86.3443 38.1206 86.3966 38.3051 86.4314 38.5138L86.4488 39.088C86.3826 39.4533 86.212 39.7108 86.1668 39.7421C86.1354 39.7525 86.1041 39.7491 86.0762 39.7317C85.9996 39.6064 85.9265 39.4081 85.8917 39.255C85.8569 39.168 85.8464 39.0566 85.8429 38.9627C85.8638 38.9001 85.8708 38.8235 85.9439 38.7539C85.9578 38.6669 85.9613 38.5799 86.0136 38.4964C85.9996 38.4303 86.0205 38.3712 85.9857 38.2981L86.0031 38.0824C85.9927 37.9362 85.9857 37.9153 85.8743 37.9188C85.8429 37.9641 85.836 38.0023 85.8255 38.0545C85.8151 38.1032 85.8116 38.152 85.7977 38.2007C85.7872 38.2389 85.7698 38.2772 85.7594 38.319C85.547 39.1401 85.1535 40.2153 84.8297 41.2209L84.6312 42.0143L84.6173 42.2474L84.6068 42.2509C84.6208 42.6475 84.5964 43.0477 84.6103 43.4339C85.0943 44.2342 84.1681 44.2864 83.9418 44.3247C83.7851 44.3247 82.932 44.4012 82.7614 43.8306C82.7648 43.7714 82.7474 43.6044 82.9111 43.4235C82.9215 43.4096 82.925 43.3991 82.9355 43.3887C82.9355 42.4631 83.0156 41.5445 82.0476 39.7143C81.9083 39.4359 81.8735 39.1541 81.8003 38.914C81.776 38.8444 81.6228 38.8061 81.567 38.9209V39.328C81.5566 39.4324 81.4278 39.5055 81.3094 39.5542C81.003 39.6656 80.324 39.9126 79.739 39.8987C79.6067 39.8952 79.551 39.8917 79.4953 39.7491L79.3769 39.2932C79.3072 39.248 79.2028 39.1645 79.1192 39.3176C79.2167 40.1805 79.3769 40.8277 79.0809 42.4248C78.9521 42.9398 79.0356 43.42 79.0635 43.8271C79.1331 43.9245 79.2028 44.0359 79.2585 44.1577C79.2689 44.2586 79.2689 44.363 79.248 44.4604C79.2097 44.5683 79.0217 44.697 78.8789 44.7422C78.8058 44.7735 78.3636 44.9301 77.81 44.8118C77.7403 44.7596 77.6254 44.7666 77.4931 44.6274L77.4478 44.5404C77.3817 44.3073 77.4548 44.1055 77.5627 43.9037C77.608 43.7158 77.6707 43.0546 77.507 42.4388C77.3782 41.9516 77.2145 41.5132 76.9778 40.9391L76.5948 39.8569C76.5147 39.4985 76.4659 39.1506 76.452 38.8131C76.3719 38.6634 76.2117 38.74 76.2048 38.8618C76.1734 39.248 75.5989 39.1889 75.3865 39.0845C75.0348 38.9279 74.6657 38.5869 74.0738 38.8513C73.9937 38.8757 73.9728 38.8653 73.9415 38.8409C73.8788 38.6843 73.8126 38.7296 73.8161 38.7261C73.6943 38.74 73.447 39.2689 73.3913 39.4985C73.3704 40.1979 73.1963 40.2501 73.4853 41.9238C73.6176 42.571 73.9275 42.7624 74.1191 42.818C74.7667 42.8911 74.4255 42.0699 74.906 42.5466C75.1567 42.5362 75.3726 42.564 75.289 42.7137C75.1567 42.9537 74.7284 43.6601 73.8057 43.4966C73.1267 43.2599 72.7994 42.8598 72.4686 42.0491C72.2806 41.5202 72.1657 40.8208 72.0508 39.7734C72.0473 39.4603 71.995 39.4916 71.9115 39.4603C71.5807 39.4429 71.1628 39.4707 70.94 39.342C70.6823 39.1506 70.7032 39.1541 70.6754 39.0427C70.6579 38.9731 70.6858 38.8409 70.7102 38.7817C70.745 38.6843 71.135 38.4964 71.1002 38.4686C70.4316 38.0998 70.7937 37.6057 71.3474 37.4874C71.619 37.4038 71.8279 37.3447 72.0508 37.2368C72.0925 36.9689 72.1239 36.7288 72.204 36.4818L72.3815 36.0329L72.6949 35.4692C72.7297 35.3961 72.7611 35.3231 72.7994 35.2535C72.8829 35.1039 72.9595 34.996 73.0466 34.7559C73.0779 34.6724 73.1267 34.5924 73.165 34.5054C73.3495 34.0426 73.6455 33.7434 73.8718 33.5241L74.1434 33.3223L74.3454 33.2214Z" fill="#8A8C8E"></path><path fill-rule="evenodd" clip-rule="evenodd" d="M74.4387 35.4439C74.3934 35.5693 74.3168 35.5937 74.188 35.6041C74.0592 35.6146 73.9477 35.538 73.9721 35.4439C73.993 35.3499 74.0383 35.3012 74.1915 35.2664C74.3412 35.235 74.4875 35.3186 74.4387 35.4439Z" fill="#8A8C8E"></path><path fill-rule="evenodd" clip-rule="evenodd" d="M81.5526 37.6133L81.194 37.8117L80.5185 36.5834C80.3618 36.3503 80.1111 36.3259 79.9474 36.4233C79.7873 36.5173 79.6967 36.7261 79.8012 36.9766L80.4767 38.2083L80.1181 38.4067L79.46 37.2132C79.2093 36.7782 79.4112 36.3607 79.742 36.145C80.1181 35.9049 80.6613 35.9223 80.9259 36.4755L81.5526 37.6133Z" fill="white"></path><path fill-rule="evenodd" clip-rule="evenodd" d="M84.6269 35.9275L84.2717 36.1223L84.0176 35.6595L83.4848 35.9553L83.3107 35.6456L83.8469 35.3499L83.5997 34.901C83.3246 34.4208 82.6317 34.7583 82.8929 35.2872L83.5684 36.5155L83.2097 36.7104L82.5586 35.5169C82.3532 35.1515 82.4611 34.8418 82.6143 34.6435C82.7571 34.4591 83.0113 34.3269 83.2445 34.299C83.5614 34.2642 83.8295 34.4521 84.0106 34.7862L84.6269 35.9275Z" fill="white"></path><path fill-rule="evenodd" clip-rule="evenodd" d="M78.6943 36.709L78.3322 36.9073L79.0112 38.1391C79.1226 38.3966 79.0112 38.6193 78.8406 38.7062C78.6769 38.7898 78.4506 38.755 78.2974 38.5323L77.6184 37.297L77.2598 37.4954L77.9179 38.6958C78.1512 39.1412 78.6143 39.1934 78.9694 39.0298C79.3768 38.8419 79.6519 38.3757 79.3281 37.8538L78.6943 36.709Z" fill="white"></path><path fill-rule="evenodd" clip-rule="evenodd" d="M82.4495 36.0204L81.9655 36.2816L81.7949 35.9682L82.2754 35.707L82.4495 36.0204Z" fill="white"></path><path fill-rule="evenodd" clip-rule="evenodd" d="M82.0504 35.3711C81.6813 35.3224 81.4306 35.639 81.6186 35.9904L82.2907 37.2118L81.932 37.4066L81.2809 36.2236C81.0755 35.8582 81.1486 35.5694 81.2983 35.3711C81.4724 35.1449 81.7161 35.0301 81.9843 35.0127C82.0226 35.0092 82.0156 35.0162 82.0539 35.0162L82.0504 35.3711Z" fill="white"></path><path fill-rule="evenodd" clip-rule="evenodd" d="M183.561 47.7321C183.561 48.1079 183.822 48.3515 184.115 48.3515C184.414 48.3515 184.696 48.1253 184.696 47.7321C184.696 47.3563 184.397 47.1441 184.115 47.165C183.822 47.165 183.579 47.3946 183.561 47.7321ZM181.827 41.2045V45.5922C181.827 46.7057 181.294 47.5373 180.323 47.5581C179.801 47.5581 178.867 47.2554 178.77 46.048C178.672 44.9241 179.341 44.2839 180.117 44.1934C180.699 44.1343 181.253 44.4683 181.486 44.6284V43.675C181.253 43.5114 180.877 43.32 180.041 43.3409C179.149 43.3618 177.812 44.2143 177.917 45.9645C177.976 46.8762 178.526 48.3689 180.274 48.4072C182.046 48.4489 182.68 46.7439 182.68 45.9541V41.201H181.827V41.2045ZM175.009 46.7683C175.009 47.5582 175.389 48.2889 176.444 48.2889H177.52V47.4364H176.465C176.03 47.4364 175.855 47.1824 175.855 46.9388V44.2734H177.523V43.421H175.855V42.1857H175.013V46.7683H175.009ZM171.287 41.1836V46.1907C171.402 47.7913 172.635 48.2889 173.352 48.2889H174.456V47.3981H173.582C172.516 47.3981 172.234 46.7892 172.175 45.8184V41.1871H171.287V41.1836Z" fill="#B8292F"></path><path fill-rule="evenodd" clip-rule="evenodd" d="M152.353 47.4678V48.2925H154.372C154.431 48.2925 154.546 48.2925 154.661 48.2925C155.201 48.2925 156.092 48.1707 156.169 47.0329C156.207 46.3265 155.772 45.8115 154.644 45.4775C154.094 45.3348 153.282 45.1956 153.244 44.7433C153.227 44.4684 153.435 44.3084 153.777 44.3084H155.943V43.4628H153.944C153.247 43.4628 152.321 43.7029 152.36 44.7607C152.377 45.5158 152.854 45.8498 153.683 46.1421C154.515 46.417 155.326 46.5561 155.305 47.0502C155.284 47.4226 154.947 47.4643 154.755 47.4852C154.717 47.4643 154.696 47.4643 154.689 47.4643H152.353V47.4678ZM150.556 41.2429V48.2925H151.405V41.2429H150.556ZM148.672 48.2959H149.543V45.5784C149.543 44.4232 148.749 43.3654 147.213 43.3654C145.608 43.3654 144.779 44.5032 144.779 45.8394C144.779 47.4295 145.949 48.4142 147.07 48.3968C147.746 48.376 147.99 48.1741 148.338 47.941V46.8763C147.99 47.3286 147.614 47.5513 147.15 47.5513C146.388 47.5513 145.632 46.9389 145.632 45.8428C145.653 44.5658 146.6 44.1935 147.15 44.2144C148.087 44.2144 148.637 44.7781 148.679 45.5123V48.2959H148.672ZM141.193 45.8985C141.193 46.8937 141.927 48.2124 143.491 48.2925H144.341V47.4469H143.644C142.593 47.4469 142.098 46.5631 142.098 45.9194C142.077 44.7224 143.073 44.3118 143.606 44.3118H144.341V43.4663H143.491C142.004 43.5568 141.231 44.6633 141.193 45.8985ZM139.01 48.2925H139.859V43.4663H139.01V48.2925ZM138.929 42.3598C138.912 42.7112 139.191 42.9131 139.462 42.9131C139.723 42.9131 139.946 42.7112 139.946 42.3807C139.946 42.0675 139.706 41.8483 139.445 41.8483C139.173 41.8448 138.95 42.0675 138.929 42.3598ZM135.461 46.7858C135.461 47.5687 135.837 48.2959 136.893 48.2959H137.965V47.4504H136.91C136.475 47.4504 136.301 47.1999 136.301 46.9563V44.3118H137.962V43.4663H136.301V42.238H135.461V46.7858ZM130.496 43.4663V46.2117C130.496 47.781 131.492 48.3551 132.456 48.3968C133.606 48.4351 134.455 47.5095 134.455 46.3335V43.4663H133.606V46.3717C133.567 46.9354 133.132 47.5478 132.456 47.5478C131.906 47.5269 131.384 47.0955 131.346 46.3717V43.4663H130.496ZM126.126 45.989L126.492 46.7023L129.622 44.8929C129.11 43.8769 128.435 43.3654 127.352 43.3654C126.3 43.3654 124.935 44.1692 124.974 45.989C124.974 47.3077 126.074 48.4142 127.331 48.4142C128.974 48.3934 129.765 47.0363 129.786 46.149L128.936 46.0273C128.752 46.9737 128.376 47.5269 127.39 47.5443C126.415 47.5652 125.903 46.7406 125.865 45.9542C125.806 45.0704 126.377 44.204 127.352 44.204C128.059 44.204 128.278 44.4962 128.435 44.6563L126.126 45.989ZM121.335 45.8985C121.335 46.8937 122.07 48.2124 123.633 48.2925H124.483V47.4469H123.786C122.735 47.4469 122.24 46.5631 122.24 45.9194C122.219 44.7224 123.215 44.3118 123.748 44.3118H124.483V43.4663H123.633C122.146 43.5568 121.373 44.6633 121.335 45.8985ZM119.674 48.2959H120.545V45.5784C120.545 44.4232 119.751 43.3654 118.215 43.3654C116.61 43.3654 115.781 44.5032 115.781 45.8394C115.781 47.4295 116.951 48.4142 118.072 48.3968C118.748 48.376 118.992 48.1741 119.34 47.941V46.8763C118.992 47.3286 118.616 47.5513 118.152 47.5513C117.39 47.5513 116.634 46.9389 116.634 45.8428C116.655 44.5658 117.602 44.1935 118.152 44.2144C119.089 44.2144 119.639 44.7781 119.681 45.5123V48.2959H119.674ZM109.023 48.2925H109.872V45.3661C109.872 44.8129 109.977 44.2283 110.743 44.2109C111.324 44.19 111.603 44.6633 111.603 45.307V48.2925H112.473V45.2444C112.473 44.7711 112.665 44.2075 113.382 44.2075C114.04 44.2283 114.214 44.8303 114.214 45.2444V48.2925H115.064V44.9729C115.064 44.0891 114.308 43.3654 113.441 43.3654C112.745 43.3654 112.271 43.696 112.042 44.0509C111.84 43.7795 111.464 43.3863 110.767 43.3654C109.684 43.3445 109.047 44.1483 109.03 44.9729V48.2925H109.023ZM106.502 43.4663V48.2925H107.351V45.7593C107.372 45.227 107.592 44.2109 108.577 44.2109H108.779V43.3654H108.518C107.908 43.3654 107.511 43.6786 107.309 44.03V43.4663H106.502ZM104.628 48.2959H105.499V45.5784C105.499 44.4232 104.705 43.3654 103.169 43.3654C101.564 43.3654 100.735 44.5032 100.735 45.8394C100.735 47.4295 101.905 48.4142 103.027 48.3968C103.702 48.376 103.946 48.1741 104.294 47.941V46.8763C103.946 47.3286 103.57 47.5513 103.107 47.5513C102.344 47.5513 101.589 46.9389 101.589 45.8428C101.609 44.5658 102.557 44.1935 103.107 44.2144C104.043 44.2144 104.594 44.7781 104.632 45.5123V48.2959H104.628ZM96.1323 41.2429V48.2925H96.9645V45.5262C96.9645 44.9521 97.243 44.2283 98.1518 44.2283C98.7716 44.2283 99.2034 44.6389 99.2034 45.4636V48.289H100.074V45.3035C100.074 43.9848 99.2417 43.3828 98.2667 43.3828C97.7166 43.3828 97.3405 43.5324 96.961 43.856V41.2429H96.1323ZM91.2227 48.2925H92.1315V43.515C92.1315 42.9722 92.3334 42.0049 93.4163 42.0049C94.4888 42.0049 94.7116 42.8887 94.7116 43.3828C94.7116 43.776 94.5271 44.7294 93.486 44.7294H92.4901V45.6132H93.7959C94.6281 45.6132 95.6239 44.7677 95.6239 43.3793C95.6239 41.8622 94.4365 41.0967 93.4198 41.1176C92.2603 41.1385 91.2261 42.0432 91.2261 43.4907V48.2925H91.2227Z" fill="#B8292F"></path><path d="M168.094 45.5807C168.094 44.8187 167.975 44.1158 167.739 43.4721C167.47 42.7449 167.077 42.1742 166.562 41.7567L166.523 41.7149C166.509 41.7149 166.502 41.7114 166.495 41.7045L166.478 41.6836C166.461 41.6627 166.433 41.6418 166.394 41.6244L166.767 40.9668C167.446 41.4922 167.975 42.1707 168.358 43.0058C168.72 43.8061 168.902 44.6725 168.902 45.6016C168.902 45.7512 168.895 45.9008 168.884 46.0574L168.867 46.2905C168.835 46.6872 168.748 47.1047 168.606 47.5432C168.233 48.6949 167.641 49.5265 166.837 50.0345L166.471 49.4778C167.554 48.6114 168.097 47.4249 168.097 45.9252V45.7234C168.097 45.7164 168.097 45.7094 168.097 45.7025V45.5807H168.094ZM161.603 48.2043V43.4408C161.603 42.7414 161.802 42.1568 162.199 41.6906C162.596 41.2243 163.111 40.9877 163.748 40.9877C164.385 40.9877 164.96 41.2904 165.479 41.8958C165.796 42.2647 165.956 42.7344 165.956 43.2981C165.956 43.9175 165.81 44.4011 165.517 44.7526C165.082 45.271 164.587 45.525 164.041 45.5181H162.787V44.6516H163.602C163.616 44.6516 163.626 44.6516 163.64 44.6516H163.734C164.107 44.6516 164.382 44.5751 164.556 44.4185C164.807 44.2028 164.949 43.9209 164.988 43.5695C165.002 43.4547 165.005 43.3642 165.005 43.2981C165.005 43.1624 164.991 43.0371 164.96 42.9154L164.922 42.7727C164.716 42.2194 164.326 41.9446 163.752 41.9446C163.247 41.9446 162.899 42.1394 162.704 42.5291C162.568 42.811 162.498 43.2529 162.498 43.8514V48.2008H161.603V48.2043ZM158.219 45.4206C158.219 43.8444 158.769 42.5013 159.873 41.3843C159.967 41.2904 160.078 41.186 160.21 41.0712L160.649 41.534C160.287 41.9237 160.085 42.1464 160.04 42.1986C159.859 42.4213 159.695 42.6822 159.545 42.9849C159.166 43.7504 158.967 44.6238 158.957 45.5981C158.94 46.802 159.295 47.8842 160.022 48.848C160.217 49.1055 160.423 49.3108 160.649 49.4743L160.277 50.1111C158.905 49.0011 158.219 47.4423 158.219 45.438V45.4206Z" fill="#B8292F"></path><path fill-rule="evenodd" clip-rule="evenodd" d="M109.456 39.7958H107.433L107.436 32.4365C107.318 31.0656 106.298 30.3593 105.347 30.394C104.438 30.4254 103.547 31.1108 103.408 32.4261L103.401 39.7993H101.381L101.378 32.6279C101.332 30.1574 103.192 28.8387 105.124 28.703C107.318 28.5499 109.613 29.9139 109.453 32.9237L109.456 39.7958Z" fill="#B8292F"></path><path fill-rule="evenodd" clip-rule="evenodd" d="M113.536 29.0176H115.548L115.534 36.8675C115.312 39.8738 112.825 39.9399 110.691 39.7172L110.688 38.1479C112.651 38.3985 113.612 37.9461 113.55 35.7923L113.536 29.0176Z" fill="#B8292F"></path><path fill-rule="evenodd" clip-rule="evenodd" d="M136.658 39.8034L134.663 39.7964L134.652 37.1415H131.664L131.64 35.4087L134.659 35.4017L134.649 32.4615C134.596 29.744 130.818 29.5596 130.686 32.4476V39.7825L128.673 39.779L128.67 32.6564C128.66 30.5965 129.871 29.5213 130.992 29.0272C132.048 28.5644 133.458 28.5957 134.523 29.0411C135.968 29.65 136.689 31.0836 136.665 32.9556L136.658 39.8034Z" fill="#B8292F"></path><path d="M120.275 29.0781H118.221V39.823H120.275V29.0781Z" fill="#B8292F"></path><path fill-rule="evenodd" clip-rule="evenodd" d="M124.134 29.082H126.213V39.8269H124.134L124.141 35.2582H121.275V33.5254H124.179L124.134 29.082Z" fill="#B8292F"></path><path fill-rule="evenodd" clip-rule="evenodd" d="M99.3017 29.0386H97.2787L97.2821 36.3979C97.1637 37.7654 96.1435 38.4752 95.1929 38.4404C94.2841 38.4091 93.3928 37.7236 93.2535 36.4083L93.2465 29.0352H91.227L91.2235 36.2065C91.1782 38.677 93.0376 39.9958 94.9701 40.1315C97.1638 40.2846 99.4584 38.9206 99.2982 35.9108L99.3017 29.0386Z" fill="#B8292F"></path><path d="M27.7352 30.0726V41.4578C27.0144 41.4786 26.3354 41.5169 25.6947 41.5795C25.552 41.59 25.4127 41.6004 25.2769 41.6109C25.1411 41.6213 25.0123 41.6283 24.8974 41.6352C24.779 41.6387 24.678 41.6422 24.584 41.6422V41.3673C25.0819 41.2768 25.4928 41.068 25.8166 40.7444C26.123 40.4417 26.3285 40.1112 26.4399 39.7563C26.5409 39.4501 26.5931 38.8168 26.5931 37.8529V33.6079C26.5931 32.6753 26.5583 32.0873 26.4852 31.8437C26.4155 31.5793 26.231 31.367 25.9385 31.2035C25.6321 31.04 25.1829 30.9495 24.584 30.9286V30.6711C25.8828 30.525 26.9309 30.3266 27.7352 30.0726ZM28.7693 41.4578V29.7664C29.3474 29.5333 29.7199 29.3698 29.8801 29.2793V38.4897C29.8801 40.1738 30.5312 41.1341 31.83 41.3673V41.6422C30.8864 41.5621 30.1343 41.5099 29.5772 41.4891C29.0305 41.4682 28.7589 41.4578 28.7693 41.4578Z" fill="#B8292F"></path><path d="M33.7523 35.3446H33.4633C33.4633 35.0105 33.5051 34.7043 33.5852 34.4329C33.707 34.0258 33.8498 33.4691 34.01 32.7592H42.6767L38.4739 37.7072C41.054 38.3474 42.3424 40.0106 42.3424 42.7003C42.3424 44.3044 41.8131 45.5779 40.7581 46.5209C39.7135 47.4743 38.5052 47.951 37.1333 47.951C36.127 47.951 35.2043 47.6448 34.3617 47.0359C33.5399 46.4374 33.0106 45.4979 32.7773 44.2209H33.2196C33.5538 45.143 34.0935 45.825 34.8352 46.2599C35.5769 46.7053 36.3325 46.928 37.1055 46.928C38.2127 46.928 39.1529 46.5766 39.9224 45.8772C40.6954 45.1778 41.0784 44.1374 41.0784 42.756C41.0784 41.3851 40.7024 40.3168 39.9503 39.5444C39.1772 38.7928 38.2685 38.417 37.2239 38.417C37.0219 38.417 36.7677 38.4309 36.4613 38.4622L40.483 33.73H36.7224C35.8485 33.73 35.2008 33.8309 34.7725 34.0362C34.3547 34.238 34.0135 34.673 33.7523 35.3446ZM34.3164 30.748H44.4002L43.5158 31.7676H34.1632L34.3164 30.748ZM41.8096 46.8201C42.2658 46.4861 42.6558 45.8876 42.9831 45.0247C43.2895 44.1931 43.4392 43.4171 43.4392 42.6968C43.4392 41.2146 42.9622 39.861 42.0081 38.6327C43.763 39.5966 44.644 40.9814 44.644 42.7873C44.644 43.8834 44.355 44.7811 43.777 45.4805C43.2059 46.1729 42.5513 46.6183 41.8096 46.8201Z" fill="#B8292F"></path><path d="M49.1825 30.0726V41.4578C48.4617 41.4786 47.7827 41.5169 47.142 41.5795C46.9992 41.59 46.86 41.6004 46.7242 41.6109C46.5884 41.6213 46.4595 41.6283 46.3446 41.6352C46.2262 41.6387 46.1253 41.6422 46.0312 41.6422V41.3673C46.5292 41.2768 46.94 41.068 47.2639 40.7444C47.5703 40.4417 47.7757 40.1112 47.8872 39.7563C47.9881 39.4501 48.0404 38.8168 48.0404 37.8529V33.6079C48.0404 32.6753 48.0055 32.0873 47.9324 31.8437C47.8628 31.5793 47.6782 31.367 47.3857 31.2035C47.0793 31.04 46.6302 30.9495 46.0312 30.9286V30.6711C47.33 30.525 48.3816 30.3266 49.1825 30.0726ZM50.2166 41.4578V29.7664C50.7946 29.5333 51.1672 29.3698 51.3274 29.2793V38.4897C51.3274 40.1738 51.9785 41.1341 53.2773 41.3673V41.6422C52.3337 41.5621 51.5816 41.5099 51.0244 41.4891C50.4778 41.4682 50.2062 41.4578 50.2166 41.4578Z" fill="#B8292F"></path><path d="M67.537 32.9506L64.7305 31.4857H63.0312V30.8976H64.7305L67.537 29.4258V30.0799L65.2562 31.1899L67.537 32.2999V32.9506Z" fill="#B8292F"></path><path d="M67.056 34.1603H65.5483V35.8027H65.0643V34.1603H63.5113V35.994H63.0273V33.5723H67.54V35.994H67.056V34.1603Z" fill="#B8292F"></path><path d="M64.0302 39.555V37.5926L63.0273 37.2307V36.6113L67.5087 38.2398V38.9183L63.0273 40.5398V39.9204L64.0302 39.555ZM64.5107 39.388L66.7879 38.5738L64.5107 37.7596V39.388Z" fill="#B8292F"></path><path d="M63.0308 43.6137L64.8728 42.542V41.8322H63.0308V41.2441H67.5365V42.6986C67.5365 43.0396 67.4773 43.3249 67.3624 43.5615C67.2475 43.7947 67.0874 43.9721 66.8889 44.0869C66.6904 44.2018 66.4641 44.2609 66.2099 44.2609C65.9 44.2609 65.6249 44.1704 65.3881 43.993C65.1514 43.8155 64.9947 43.5476 64.9146 43.1892L63.0273 44.3201V43.6137H63.0308ZM65.3429 41.8322V42.6986C65.3429 43.0187 65.423 43.2553 65.5797 43.4154C65.7363 43.5754 65.9487 43.6555 66.2099 43.6555C66.478 43.6555 66.6834 43.5754 66.8297 43.4189C66.9759 43.2623 67.0491 43.0222 67.0491 42.6986V41.8322H65.3429Z" fill="#B8292F"></path><path d="M63.1417 45.8015C63.2461 45.5684 63.3923 45.384 63.5804 45.2483C63.7684 45.116 63.9843 45.0464 64.2315 45.043V45.6693C64.0191 45.6902 63.8415 45.7772 63.6988 45.9303C63.556 46.0834 63.4829 46.306 63.4829 46.5983C63.4829 46.8767 63.5525 47.0994 63.6918 47.2594C63.8311 47.4195 64.0122 47.503 64.2315 47.503C64.4056 47.503 64.5449 47.4543 64.6528 47.3604C64.7608 47.2664 64.8409 47.1481 64.9001 47.0054C64.9558 46.8628 65.015 46.6714 65.0811 46.4313C65.1577 46.1355 65.2378 45.8955 65.3144 45.718C65.391 45.5405 65.5129 45.3874 65.68 45.2587C65.8472 45.13 66.07 45.0673 66.3486 45.0673C66.5958 45.0673 66.8117 45.13 67.0032 45.2552C67.1912 45.3805 67.3409 45.5545 67.4419 45.7806C67.5464 46.0068 67.5986 46.2643 67.5986 46.5601C67.5986 46.9811 67.4941 47.329 67.2817 47.597C67.0693 47.8649 66.7908 48.018 66.4426 48.0528V47.4056C66.6132 47.3847 66.7664 47.2942 66.8987 47.1342C67.031 46.9741 67.0972 46.7654 67.0972 46.5009C67.0972 46.2539 67.0345 46.0555 66.9057 45.8989C66.7769 45.7424 66.5993 45.6658 66.3729 45.6658C66.2093 45.6658 66.077 45.711 65.9725 45.805C65.8681 45.8989 65.7914 46.0103 65.7357 46.146C65.6835 46.2817 65.6208 46.4731 65.5512 46.7166C65.4676 47.0124 65.3875 47.2525 65.3075 47.4334C65.2274 47.6144 65.1055 47.7675 64.9384 47.8997C64.7712 48.0284 64.5484 48.0945 64.2629 48.0945C64.0435 48.0945 63.8346 48.0354 63.6431 47.9206C63.4516 47.8057 63.2914 47.6318 63.1695 47.4056C63.0476 47.1759 62.9884 46.908 62.9884 46.5983C62.985 46.3026 63.0372 46.0381 63.1417 45.8015Z" fill="#B8292F"></path><path d="M60.8941 36.456H58.394V39.0135H56.0645V36.456H53.5645V34.2569H56.0645V31.6855H58.394V34.2569H60.8941V36.456Z" fill="#B8292F"></path><path d="M106.956 0C80.7057 0 56.666 3.70921 38.0443 9.86454C54.8971 4.7148 76.0921 1.64235 99.1185 1.64235C154.019 1.64235 198.526 19.0888 198.526 40.6064C198.526 62.124 154.023 79.574 99.1185 79.574C46.7945 79.574 3.91028 63.7281 0 43.6093C2.15884 66.0594 49.2145 84 106.956 84C166.074 84 214 65.1965 214 41.9983C214 18.8 166.074 0 106.956 0Z" fill="#B8292F"></path><path d="M193.597 39.149C193.597 58.6832 150.326 74.5152 96.951 74.5152C43.5755 74.5152 0.304688 58.6832 0.304688 39.149C0.304688 38.8637 0.315132 38.5818 0.336024 38.3C0.778238 31.4 6.62451 24.9907 16.3776 19.6148C33.6866 10.0703 63.3079 3.7793 96.951 3.7793C121.966 3.7793 144.759 7.25538 161.922 12.9619C146.249 8.05219 125.946 5.08761 103.762 5.08761C54.1468 5.08761 13.9263 19.9071 13.9263 38.1852C13.9263 56.4633 54.1468 71.2827 103.762 71.2827C152.938 71.2827 192.88 56.7242 193.58 38.6688C193.587 38.8289 193.597 38.9889 193.597 39.149Z" fill="#6F7072"></path></svg>